# xmcd
#
# Track frame offsets:
#	150
#	18127
#	40182
#	61795
#	83842
#	104032
#	124968
#	144638
#	165596
#	183513
#	199058
#	219250
#	237052
#	256990
#	279670
#	297497
#	318944
#
# Disc length: 4544 seconds
#
# Revision: 0
# Processed by: cddbd v1.5PL3 Copyright (c) Steve Scherf et al.
# Submitted via: audiograbber 1.83.01
#
DISCID=f511be11
DTITLE=Whitney Houston - The Greatest Hits by ADALMA
DYEAR=1900
DGENRE=
TTITLE0=Saving All My Love For You
TTITLE1=Greatest Love Of All
TTITLE2=One Moment In Time
TTITLE3=I Have Nothing
TTITLE4=I Will Always Love You
TTITLE5=Where Do Broken Hearts Go
TTITLE6=If You Say My Eyes Are Beautiful
TTITLE7=Didn't We Almost Have It All
TTITLE8=All The Man I Need
TTITLE9=Exhale (Shoop Shoop)
TTITLE10=Count On Me
TTITLE11=I Believe In You And Me
TTITLE12=I Learned From The Best
TTITLE13=Same Script, Different Cast
TTITLE14=Could I Have This Kiss Forever (Metro Mix)
TTITLE15=Greatest Love Of All (Club 69 Mix)
TTITLE16=I Will Always Love You (Hex Hector Mix)
EXTD=
EXTT0=
EXTT1=
EXTT2=
EXTT3=
EXTT4=
EXTT5=
EXTT6=
EXTT7=
EXTT8=
EXTT9=
EXTT10=
EXTT11=
EXTT12=
EXTT13=
EXTT14=
EXTT15=
EXTT16=
PLAYORDER=
